/* XPM */
static char * haskell_20_xpm[] = {
"28 20 5 1",
" 	c None",
".	c #453A62",
"+	c #5E5086",
"@	c #5F5086",
"#	c #8F4E8B",
".....  +++++                ",
" .....  +++++               ",
"  ..... +++++               ",
"  .....  @++++              ",
"   .....  +++++             ",
"    ....  +++++             ",
"    .....  +++++  ##########",
"     .....  +++++ ##########",
"      ..... +++++  #########",
"      .....  +++++          ",
"      .....  +++++          ",
"      ..... +++++++  #######",
"     .....  ++++++++  ######",
"    .....  +++++++++  ######",
"    ..... +++++ +++++       ",
"   .....  +++++  +++++      ",
"  .....  +++++   +++++      ",
"  ....  @++++     +++++     ",
" .....  +++++      +++++    ",
".....  +++++        ++++    "};
